<svg width="25" height="25" viewBox="0 0 25 25" fill="none" xmlns="http://www.w3.org/2000/svg">
<path d="M3.90623 0.78125C3.90623 0.57405 3.98854 0.375336 4.13506 0.228823C4.28157 0.08231 4.48028 0 4.68748 0L20.3125 0C20.5197 0 20.7184 0.08231 20.8649 0.228823C21.0114 0.375336 21.0937 0.57405 21.0937 0.78125C21.0937 1.62187 21.075 2.42188 21.0406 3.18125C21.658 3.28349 22.2487 3.50831 22.7778 3.84247C23.3069 4.17663 23.7638 4.61335 24.1214 5.12689C24.4791 5.64042 24.7302 6.22038 24.8602 6.83254C24.9901 7.44471 24.9961 8.07669 24.8779 8.69123C24.7597 9.30577 24.5197 9.89041 24.1719 10.4107C23.8241 10.931 23.3757 11.3763 22.8531 11.7205C22.3304 12.0647 21.7441 12.3008 21.1288 12.4148C20.5135 12.5288 19.8816 12.5185 19.2703 12.3844C18.0359 15.2984 16.3359 16.7234 14.8437 17.0891V20.4844L17.0703 21.0406C17.3734 21.1156 17.6594 21.2516 17.9094 21.4391L20.7812 23.5938C20.9124 23.6921 21.0093 23.8293 21.0582 23.9858C21.1071 24.1423 21.1055 24.3102 21.0536 24.4658C21.0018 24.6214 20.9023 24.7567 20.7693 24.8525C20.6363 24.9484 20.4765 25 20.3125 25H4.68748C4.52351 25 4.3637 24.9484 4.23068 24.8525C4.09766 24.7567 3.99818 24.6214 3.94632 24.4658C3.89447 24.3102 3.89288 24.1423 3.94177 23.9858C3.99066 23.8293 4.08756 23.6921 4.21873 23.5938L7.09061 21.4391C7.34061 21.2516 7.62654 21.1156 7.92967 21.0406L10.1562 20.4844V17.0891C8.66405 16.7234 6.96405 15.2984 5.72967 12.3828C5.11809 12.5176 4.48568 12.5286 3.86981 12.4149C3.25394 12.3013 2.66709 12.0654 2.14391 11.7211C1.62073 11.3769 1.17184 10.9313 0.823742 10.4107C0.475646 9.89005 0.235403 9.30496 0.117203 8.68994C-0.000996385 8.07493 0.00524302 7.44246 0.135553 6.8299C0.265863 6.21734 0.517602 5.63709 0.875902 5.12345C1.2342 4.6098 1.6918 4.17315 2.22166 3.8393C2.75153 3.50545 3.34293 3.28117 3.96092 3.17969C3.92414 2.38074 3.9059 1.58104 3.90623 0.78125ZM4.06092 4.75C3.24559 4.89918 2.52291 5.36615 2.05187 6.04817C1.58083 6.73018 1.40002 7.57138 1.5492 8.38672C1.69839 9.20205 2.16535 9.92473 2.84737 10.3958C3.52938 10.8668 4.37059 11.0476 5.18592 10.8984C4.66561 9.25781 4.26717 7.23281 4.06092 4.75ZM19.8156 10.8984C20.6309 11.0476 21.4721 10.8668 22.1542 10.3958C22.8362 9.92473 23.3031 9.20205 23.4523 8.38672C23.6015 7.57138 23.4207 6.73018 22.9497 6.04817C22.4786 5.36615 21.7559 4.89918 20.9406 4.75C20.7328 7.23438 20.3344 9.25781 19.8156 10.8984Z" fill="#FFB824"/>
<path d="M12.0321 10.73C12.0188 10.7433 12.0155 10.7567 12.0221 10.77C12.0288 10.7833 12.0421 10.79 12.0621 10.79H14.7721C14.8055 10.79 14.8321 10.8033 14.8521 10.83C14.8788 10.85 14.8921 10.8767 14.8921 10.91V11.88C14.8921 11.9133 14.8788 11.9433 14.8521 11.97C14.8321 11.99 14.8055 12 14.7721 12H10.2721C10.2388 12 10.2088 11.99 10.1821 11.97C10.1621 11.9433 10.1521 11.9133 10.1521 11.88V10.96C10.1521 10.9 10.1721 10.85 10.2121 10.81C10.5388 10.49 10.8721 10.1433 11.2121 9.77C11.5521 9.39 11.7655 9.15333 11.8521 9.06C12.0388 8.84 12.2288 8.63 12.4221 8.43C13.0288 7.75667 13.3321 7.25667 13.3321 6.93C13.3321 6.69667 13.2488 6.50667 13.0821 6.36C12.9155 6.20667 12.6988 6.13 12.4321 6.13C12.1655 6.13 11.9488 6.20667 11.7821 6.36C11.6155 6.50667 11.5321 6.70333 11.5321 6.95V7.2C11.5321 7.23333 11.5188 7.26333 11.4921 7.29C11.4721 7.31 11.4455 7.32 11.4121 7.32H10.2321C10.1988 7.32 10.1688 7.31 10.1421 7.29C10.1221 7.26333 10.1121 7.23333 10.1121 7.2V6.73C10.1321 6.37 10.2455 6.05333 10.4521 5.78C10.6588 5.5 10.9321 5.28667 11.2721 5.14C11.6188 4.99333 12.0055 4.92 12.4321 4.92C12.9055 4.92 13.3155 5.01 13.6621 5.19C14.0155 5.36333 14.2855 5.6 14.4721 5.9C14.6655 6.2 14.7621 6.53333 14.7621 6.9C14.7621 7.18 14.6921 7.46667 14.5521 7.76C14.4121 8.05333 14.2021 8.37 13.9221 8.71C13.7155 8.97 13.4921 9.22667 13.2521 9.48C13.0121 9.73333 12.6555 10.1 12.1821 10.58L12.0321 10.73Z" fill="#292D32"/>
</svg>
