<svg width="25" height="25" viewBox="0 0 25 25" fill="none" xmlns="http://www.w3.org/2000/svg">
<path d="M3.90623 0.78125C3.90623 0.57405 3.98854 0.375336 4.13506 0.228823C4.28157 0.08231 4.48028 0 4.68748 0L20.3125 0C20.5197 0 20.7184 0.08231 20.8649 0.228823C21.0114 0.375336 21.0937 0.57405 21.0937 0.78125C21.0937 1.62187 21.075 2.42188 21.0406 3.18125C21.658 3.28349 22.2487 3.50831 22.7778 3.84247C23.3069 4.17663 23.7638 4.61335 24.1214 5.12689C24.4791 5.64042 24.7302 6.22038 24.8602 6.83254C24.9901 7.44471 24.9961 8.07669 24.8779 8.69123C24.7597 9.30577 24.5197 9.89041 24.1719 10.4107C23.8241 10.931 23.3757 11.3763 22.8531 11.7205C22.3304 12.0647 21.7441 12.3008 21.1288 12.4148C20.5135 12.5288 19.8816 12.5185 19.2703 12.3844C18.0359 15.2984 16.3359 16.7234 14.8437 17.0891V20.4844L17.0703 21.0406C17.3734 21.1156 17.6594 21.2516 17.9094 21.4391L20.7812 23.5938C20.9124 23.6921 21.0093 23.8293 21.0582 23.9858C21.1071 24.1423 21.1055 24.3102 21.0536 24.4658C21.0018 24.6214 20.9023 24.7567 20.7693 24.8525C20.6363 24.9484 20.4765 25 20.3125 25H4.68748C4.52351 25 4.3637 24.9484 4.23068 24.8525C4.09766 24.7567 3.99818 24.6214 3.94632 24.4658C3.89447 24.3102 3.89288 24.1423 3.94177 23.9858C3.99066 23.8293 4.08756 23.6921 4.21873 23.5938L7.09061 21.4391C7.34061 21.2516 7.62654 21.1156 7.92967 21.0406L10.1562 20.4844V17.0891C8.66405 16.7234 6.96405 15.2984 5.72967 12.3828C5.11809 12.5176 4.48568 12.5286 3.86981 12.4149C3.25394 12.3013 2.66709 12.0654 2.14391 11.7211C1.62073 11.3769 1.17184 10.9313 0.823742 10.4107C0.475646 9.89005 0.235403 9.30496 0.117203 8.68994C-0.000996385 8.07493 0.00524302 7.44246 0.135553 6.8299C0.265863 6.21734 0.517602 5.63709 0.875902 5.12345C1.2342 4.6098 1.6918 4.17315 2.22166 3.8393C2.75153 3.50545 3.34293 3.28117 3.96092 3.17969C3.92414 2.38074 3.9059 1.58104 3.90623 0.78125ZM4.06092 4.75C3.24559 4.89918 2.52291 5.36615 2.05187 6.04817C1.58083 6.73018 1.40002 7.57138 1.5492 8.38672C1.69839 9.20205 2.16535 9.92473 2.84737 10.3958C3.52938 10.8668 4.37059 11.0476 5.18592 10.8984C4.66561 9.25781 4.26717 7.23281 4.06092 4.75ZM19.8156 10.8984C20.6309 11.0476 21.4721 10.8668 22.1542 10.3958C22.8362 9.92473 23.3031 9.20205 23.4523 8.38672C23.6015 7.57138 23.4207 6.73018 22.9497 6.04817C22.4786 5.36615 21.7559 4.89918 20.9406 4.75C20.7328 7.23438 20.3344 9.25781 19.8156 10.8984Z" fill="#B4D654"/>
<path d="M14.5698 8.66C14.7031 8.96667 14.7698 9.32 14.7698 9.72C14.7698 10.08 14.7098 10.4133 14.5898 10.72C14.4298 11.1467 14.1598 11.48 13.7798 11.72C13.4065 11.96 12.9631 12.08 12.4498 12.08C11.9431 12.08 11.4965 11.9533 11.1098 11.7C10.7298 11.4467 10.4565 11.1033 10.2898 10.67C10.1965 10.41 10.1431 10.13 10.1298 9.83C10.1298 9.75 10.1698 9.71 10.2498 9.71H11.4298C11.5098 9.71 11.5498 9.75 11.5498 9.83C11.5765 10.05 11.6131 10.2133 11.6598 10.32C11.7198 10.4933 11.8165 10.63 11.9498 10.73C12.0898 10.8233 12.2531 10.87 12.4398 10.87C12.8131 10.87 13.0698 10.7067 13.2098 10.38C13.3031 10.18 13.3498 9.94667 13.3498 9.68C13.3498 9.36667 13.2998 9.11 13.1998 8.91C13.0465 8.59667 12.7898 8.44 12.4298 8.44C12.3565 8.44 12.2798 8.46333 12.1998 8.51C12.1198 8.55 12.0231 8.61 11.9098 8.69C11.8831 8.71 11.8565 8.72 11.8298 8.72C11.7898 8.72 11.7598 8.7 11.7398 8.66L11.1498 7.83C11.1365 7.81 11.1298 7.78667 11.1298 7.76C11.1298 7.72 11.1431 7.68667 11.1698 7.66L12.7598 6.27C12.7731 6.25667 12.7765 6.24333 12.7698 6.23C12.7698 6.21667 12.7598 6.21 12.7398 6.21H10.3898C10.3565 6.21 10.3265 6.2 10.2998 6.18C10.2798 6.15333 10.2698 6.12333 10.2698 6.09V5.12C10.2698 5.08667 10.2798 5.06 10.2998 5.04C10.3265 5.01333 10.3565 5 10.3898 5H14.5598C14.5931 5 14.6198 5.01333 14.6398 5.04C14.6665 5.06 14.6798 5.08667 14.6798 5.12V6.22C14.6798 6.27333 14.6565 6.32333 14.6098 6.37L13.2998 7.57C13.2865 7.58333 13.2798 7.59667 13.2798 7.61C13.2865 7.62333 13.3031 7.63 13.3298 7.63C13.9098 7.74333 14.3231 8.08667 14.5698 8.66Z" fill="#292D32"/>
</svg>
