<svg width="26" height="45" viewBox="0 0 26 45" fill="none" xmlns="http://www.w3.org/2000/svg">
<path d="M5.8102 33.72C5.8102 33.64 5.8502 33.6 5.9302 33.6H6.8422C6.9222 33.6 6.9622 33.64 6.9622 33.72V41.88C6.9622 41.96 6.9222 42 6.8422 42H5.9302C5.8502 42 5.8102 41.96 5.8102 41.88V38.316C5.8102 38.284 5.7942 38.268 5.7622 38.268H2.3422C2.3102 38.268 2.2942 38.284 2.2942 38.316V41.88C2.2942 41.96 2.2542 42 2.1742 42H1.2622C1.1822 42 1.1422 41.96 1.1422 41.88V33.72C1.1422 33.64 1.1822 33.6 1.2622 33.6H2.1742C2.2542 33.6 2.2942 33.64 2.2942 33.72V37.224C2.2942 37.256 2.3102 37.272 2.3422 37.272H5.7622C5.7942 37.272 5.8102 37.256 5.8102 37.224V33.72ZM13.6766 38.184C13.7086 38.512 13.7206 38.88 13.7126 39.288C13.7126 39.368 13.6726 39.408 13.5926 39.408H9.76458C9.73258 39.408 9.71658 39.424 9.71658 39.456C9.71658 39.728 9.74058 39.936 9.78858 40.08C9.87658 40.4 10.0526 40.652 10.3166 40.836C10.5886 41.012 10.9286 41.1 11.3366 41.1C11.9286 41.1 12.3846 40.856 12.7046 40.368C12.7446 40.288 12.7966 40.276 12.8606 40.332L13.5446 40.788C13.6006 40.836 13.6126 40.888 13.5806 40.944C13.3566 41.304 13.0366 41.588 12.6206 41.796C12.2126 42.004 11.7486 42.108 11.2286 42.108C10.6446 42.108 10.1526 41.98 9.75258 41.724C9.35258 41.468 9.05258 41.104 8.85258 40.632C8.66058 40.16 8.56458 39.588 8.56458 38.916C8.56458 38.332 8.60858 37.888 8.69658 37.584C8.84058 37.032 9.12858 36.596 9.56058 36.276C9.99258 35.956 10.5166 35.796 11.1326 35.796C11.9406 35.796 12.5446 36 12.9446 36.408C13.3446 36.808 13.5886 37.4 13.6766 38.184ZM11.1326 36.792C10.7886 36.792 10.5046 36.88 10.2806 37.056C10.0566 37.224 9.90458 37.452 9.82458 37.74C9.76858 37.916 9.73258 38.14 9.71658 38.412C9.71658 38.444 9.73258 38.46 9.76458 38.46H12.5126C12.5446 38.46 12.5606 38.444 12.5606 38.412C12.5446 38.148 12.5206 37.952 12.4886 37.824C12.4086 37.512 12.2486 37.264 12.0086 37.08C11.7766 36.888 11.4846 36.792 11.1326 36.792ZM15.2862 42C15.2062 42 15.1662 41.96 15.1662 41.88V33.72C15.1662 33.64 15.2062 33.6 15.2862 33.6H16.1982C16.2782 33.6 16.3182 33.64 16.3182 33.72V41.88C16.3182 41.96 16.2782 42 16.1982 42H15.2862ZM22.9464 37.428C23.0984 37.86 23.1744 38.372 23.1744 38.964C23.1744 39.524 23.1104 40.008 22.9824 40.416C22.8144 40.952 22.5384 41.368 22.1544 41.664C21.7704 41.952 21.2784 42.096 20.6784 42.096C20.4064 42.096 20.1464 42.044 19.8984 41.94C19.6584 41.828 19.4504 41.672 19.2744 41.472C19.2584 41.456 19.2424 41.452 19.2264 41.46C19.2184 41.468 19.2144 41.48 19.2144 41.496V44.172C19.2144 44.252 19.1744 44.292 19.0944 44.292H18.1824C18.1024 44.292 18.0624 44.252 18.0624 44.172V36.012C18.0624 35.932 18.1024 35.892 18.1824 35.892H19.0944C19.1744 35.892 19.2144 35.932 19.2144 36.012V36.408C19.2144 36.424 19.2184 36.436 19.2264 36.444C19.2424 36.452 19.2584 36.448 19.2744 36.432C19.4504 36.232 19.6584 36.076 19.8984 35.964C20.1384 35.852 20.3984 35.796 20.6784 35.796C21.2544 35.796 21.7304 35.94 22.1064 36.228C22.4904 36.508 22.7704 36.908 22.9464 37.428ZM21.6264 40.524C21.8824 40.14 22.0104 39.612 22.0104 38.94C22.0104 38.324 21.9104 37.828 21.7104 37.452C21.4784 37.012 21.0984 36.792 20.5704 36.792C20.1064 36.792 19.7544 37.008 19.5144 37.44C19.3224 37.784 19.2264 38.288 19.2264 38.952C19.2264 39.624 19.3304 40.136 19.5384 40.488C19.7704 40.896 20.1104 41.1 20.5584 41.1C21.0384 41.1 21.3944 40.908 21.6264 40.524Z" fill="#252525"/>
<path d="M10 22.3199C9.72 22.3199 9.42998 22.2499 9.16998 22.1099C8.59998 21.8099 8.25 21.2099 8.25 20.5699V19.15C5.23 18.84 3.25 16.6199 3.25 13.4399V7.43994C3.25 3.99994 5.56 1.68994 9 1.68994H19C22.44 1.68994 24.75 3.99994 24.75 7.43994V13.4399C24.75 16.8799 22.44 19.1899 19 19.1899H15.23L10.97 22.03C10.68 22.22 10.34 22.3199 10 22.3199ZM9 3.17993C6.42 3.17993 4.75 4.84993 4.75 7.42993V13.43C4.75 16.01 6.42 17.68 9 17.68C9.41 17.68 9.75 18.02 9.75 18.43V20.56C9.75 20.69 9.83 20.75 9.88 20.78C9.93001 20.81 10.03 20.84 10.14 20.77L14.59 17.81C14.71 17.73 14.86 17.68 15.01 17.68H19.01C21.59 17.68 23.26 16.01 23.26 13.43V7.42993C23.26 4.84993 21.59 3.17993 19.01 3.17993H9Z" fill="#292D32"/>
<path d="M13.9998 12.11C13.5898 12.11 13.2498 11.77 13.2498 11.36V11.15C13.2498 9.99002 14.0998 9.42001 14.4198 9.20001C14.7898 8.95001 14.9098 8.78002 14.9098 8.52002C14.9098 8.02002 14.4998 7.60999 13.9998 7.60999C13.4998 7.60999 13.0898 8.02002 13.0898 8.52002C13.0898 8.93002 12.7498 9.27002 12.3398 9.27002C11.9298 9.27002 11.5898 8.93002 11.5898 8.52002C11.5898 7.19002 12.6698 6.10999 13.9998 6.10999C15.3298 6.10999 16.4098 7.19002 16.4098 8.52002C16.4098 9.66002 15.5698 10.23 15.2598 10.44C14.8698 10.7 14.7498 10.87 14.7498 11.15V11.36C14.7498 11.78 14.4098 12.11 13.9998 12.11Z" fill="#292D32"/>
<path d="M14 14.6C13.58 14.6 13.25 14.26 13.25 13.85C13.25 13.44 13.59 13.1 14 13.1C14.41 13.1 14.75 13.44 14.75 13.85C14.75 14.26 14.42 14.6 14 14.6Z" fill="#292D32"/>
</svg>
