<svg width="48" height="45" viewBox="0 0 48 45" fill="none" xmlns="http://www.w3.org/2000/svg">
<path d="M1.23877 43C1.15877 43 1.11877 42.96 1.11877 42.88V34.72C1.11877 34.64 1.15877 34.6 1.23877 34.6H2.15077C2.23077 34.6 2.27077 34.64 2.27077 34.72V41.956C2.27077 41.988 2.28677 42.004 2.31877 42.004H6.45877C6.53877 42.004 6.57877 42.044 6.57877 42.124V42.88C6.57877 42.96 6.53877 43 6.45877 43H1.23877ZM8.51452 35.932C8.29052 35.932 8.10652 35.86 7.96252 35.716C7.81852 35.572 7.74652 35.388 7.74652 35.164C7.74652 34.94 7.81852 34.756 7.96252 34.612C8.10652 34.468 8.29052 34.396 8.51452 34.396C8.73852 34.396 8.92252 34.468 9.06652 34.612C9.21052 34.756 9.28252 34.94 9.28252 35.164C9.28252 35.388 9.21052 35.572 9.06652 35.716C8.92252 35.86 8.73852 35.932 8.51452 35.932ZM8.03452 42.988C7.95452 42.988 7.91452 42.948 7.91452 42.868V37.012C7.91452 36.932 7.95452 36.892 8.03452 36.892H8.94652C9.02652 36.892 9.06652 36.932 9.06652 37.012V42.868C9.06652 42.948 9.02652 42.988 8.94652 42.988H8.03452ZM12.4851 43C12.4131 43 12.3651 42.968 12.3411 42.904L10.3851 37.024L10.3731 36.976C10.3731 36.92 10.4091 36.892 10.4811 36.892H11.4891C11.5611 36.892 11.6091 36.924 11.6331 36.988L12.9531 41.332C12.9611 41.348 12.9731 41.356 12.9891 41.356C13.0051 41.356 13.0171 41.348 13.0251 41.332L14.3331 36.988C14.3571 36.924 14.4051 36.892 14.4771 36.892L15.4851 36.904C15.5731 36.904 15.6051 36.948 15.5811 37.036L13.6371 42.904C13.6131 42.968 13.5651 43 13.4931 43H12.4851ZM21.4461 39.184C21.4781 39.512 21.4901 39.88 21.4821 40.288C21.4821 40.368 21.4421 40.408 21.3621 40.408H17.5341C17.5021 40.408 17.4861 40.424 17.4861 40.456C17.4861 40.728 17.5101 40.936 17.5581 41.08C17.6461 41.4 17.8221 41.652 18.0861 41.836C18.3581 42.012 18.6981 42.1 19.1061 42.1C19.6981 42.1 20.1541 41.856 20.4741 41.368C20.5141 41.288 20.5661 41.276 20.6301 41.332L21.3141 41.788C21.3701 41.836 21.3821 41.888 21.3501 41.944C21.1261 42.304 20.8061 42.588 20.3901 42.796C19.9821 43.004 19.5181 43.108 18.9981 43.108C18.4141 43.108 17.9221 42.98 17.5221 42.724C17.1221 42.468 16.8221 42.104 16.6221 41.632C16.4301 41.16 16.3341 40.588 16.3341 39.916C16.3341 39.332 16.3781 38.888 16.4661 38.584C16.6101 38.032 16.8981 37.596 17.3301 37.276C17.7621 36.956 18.2861 36.796 18.9021 36.796C19.7101 36.796 20.3141 37 20.7141 37.408C21.1141 37.808 21.3581 38.4 21.4461 39.184ZM18.9021 37.792C18.5581 37.792 18.2741 37.88 18.0501 38.056C17.8261 38.224 17.6741 38.452 17.5941 38.74C17.5381 38.916 17.5021 39.14 17.4861 39.412C17.4861 39.444 17.5021 39.46 17.5341 39.46H20.2821C20.3141 39.46 20.3301 39.444 20.3301 39.412C20.3141 39.148 20.2901 38.952 20.2581 38.824C20.1781 38.512 20.0181 38.264 19.7781 38.08C19.5461 37.888 19.2541 37.792 18.9021 37.792ZM27.786 43.096C27.178 43.096 26.658 42.944 26.226 42.64C25.794 42.328 25.498 41.908 25.338 41.38C25.218 41.012 25.158 40.528 25.158 39.928C25.158 39.376 25.218 38.892 25.338 38.476C25.498 37.964 25.794 37.556 26.226 37.252C26.666 36.948 27.186 36.796 27.786 36.796C28.386 36.796 28.91 36.948 29.358 37.252C29.806 37.556 30.098 37.94 30.234 38.404C30.282 38.532 30.314 38.664 30.33 38.8C30.33 38.864 30.294 38.904 30.222 38.92L29.322 39.052H29.298C29.242 39.052 29.202 39.016 29.178 38.944L29.142 38.752C29.078 38.48 28.922 38.252 28.674 38.068C28.426 37.884 28.126 37.792 27.774 37.792C27.43 37.792 27.138 37.884 26.898 38.068C26.658 38.252 26.502 38.496 26.43 38.8C26.358 39.088 26.322 39.468 26.322 39.94C26.322 40.404 26.358 40.78 26.43 41.068C26.51 41.388 26.666 41.64 26.898 41.824C27.138 42.008 27.43 42.1 27.774 42.1C28.126 42.1 28.426 42.008 28.674 41.824C28.93 41.64 29.09 41.4 29.154 41.104C29.162 41.096 29.162 41.088 29.154 41.08C29.154 41.064 29.158 41.052 29.166 41.044V40.996C29.19 40.932 29.234 40.908 29.298 40.924L30.198 41.068C30.262 41.084 30.294 41.116 30.294 41.164V41.212C30.294 41.284 30.274 41.372 30.234 41.476C30.098 41.964 29.806 42.356 29.358 42.652C28.91 42.948 28.386 43.096 27.786 43.096ZM34.3785 36.808C35.0345 36.808 35.5545 37 35.9385 37.384C36.3225 37.76 36.5145 38.272 36.5145 38.92V42.88C36.5145 42.96 36.4745 43 36.3945 43H35.4825C35.4025 43 35.3625 42.96 35.3625 42.88V39.148C35.3625 38.748 35.2465 38.424 35.0145 38.176C34.7825 37.928 34.4745 37.804 34.0905 37.804C33.7145 37.804 33.4065 37.928 33.1665 38.176C32.9265 38.424 32.8065 38.744 32.8065 39.136V42.88C32.8065 42.96 32.7665 43 32.6865 43H31.7745C31.6945 43 31.6545 42.96 31.6545 42.88V34.72C31.6545 34.64 31.6945 34.6 31.7745 34.6H32.6865C32.7665 34.6 32.8065 34.64 32.8065 34.72V37.444C32.8065 37.46 32.8105 37.472 32.8185 37.48C32.8345 37.488 32.8465 37.484 32.8545 37.468C33.1985 37.028 33.7065 36.808 34.3785 36.808ZM40.3904 36.796C40.8784 36.796 41.3024 36.884 41.6624 37.06C42.0304 37.228 42.3104 37.468 42.5024 37.78C42.7024 38.084 42.8024 38.432 42.8024 38.824V42.88C42.8024 42.96 42.7624 43 42.6824 43H41.7704C41.6904 43 41.6504 42.96 41.6504 42.88V42.448C41.6504 42.408 41.6304 42.4 41.5904 42.424C41.3824 42.64 41.1264 42.808 40.8224 42.928C40.5264 43.04 40.1944 43.096 39.8264 43.096C39.2344 43.096 38.7424 42.948 38.3504 42.652C37.9664 42.348 37.7744 41.892 37.7744 41.284C37.7744 40.66 37.9904 40.172 38.4224 39.82C38.8624 39.46 39.4744 39.28 40.2584 39.28H41.6024C41.6344 39.28 41.6504 39.264 41.6504 39.232V38.908C41.6504 38.556 41.5464 38.284 41.3384 38.092C41.1384 37.892 40.8304 37.792 40.4144 37.792C40.0784 37.792 39.8024 37.86 39.5864 37.996C39.3784 38.124 39.2504 38.3 39.2024 38.524C39.1784 38.604 39.1304 38.64 39.0584 38.632L38.0864 38.5C38.0064 38.484 37.9704 38.452 37.9784 38.404C38.0424 37.932 38.2944 37.548 38.7344 37.252C39.1744 36.948 39.7264 36.796 40.3904 36.796ZM40.0784 42.124C40.5024 42.124 40.8704 42.012 41.1824 41.788C41.4944 41.564 41.6504 41.28 41.6504 40.936V40.228C41.6504 40.196 41.6344 40.18 41.6024 40.18H40.4744C40.0024 40.18 39.6264 40.272 39.3464 40.456C39.0664 40.64 38.9264 40.896 38.9264 41.224C38.9264 41.52 39.0304 41.744 39.2384 41.896C39.4544 42.048 39.7344 42.124 40.0784 42.124ZM47.2875 37.72C47.2875 37.8 47.2475 37.84 47.1675 37.84H45.8715C45.8395 37.84 45.8235 37.856 45.8235 37.888V41.068C45.8235 41.404 45.8995 41.648 46.0515 41.8C46.2035 41.944 46.4395 42.016 46.7595 42.016H47.1075C47.1875 42.016 47.2275 42.056 47.2275 42.136V42.88C47.2275 42.96 47.1875 43 47.1075 43C46.8515 43.016 46.6675 43.024 46.5555 43.024C45.9475 43.024 45.4875 42.916 45.1755 42.7C44.8715 42.476 44.7195 42.068 44.7195 41.476V37.888C44.7195 37.856 44.7035 37.84 44.6715 37.84H43.9395C43.8595 37.84 43.8195 37.8 43.8195 37.72V37.012C43.8195 36.932 43.8595 36.892 43.9395 36.892H44.6715C44.7035 36.892 44.7195 36.876 44.7195 36.844V35.428C44.7195 35.348 44.7595 35.308 44.8395 35.308H45.7035C45.7835 35.308 45.8235 35.348 45.8235 35.428V36.844C45.8235 36.876 45.8395 36.892 45.8715 36.892H47.1675C47.2475 36.892 47.2875 36.932 47.2875 37.012V37.72Z" fill="#252525"/>
<path d="M28.9 19.01C28.59 19.01 28.28 18.92 28.01 18.74L27.05 18.11C26.78 17.93 26.65 17.59 26.74 17.28C26.81 17.05 26.84 16.78 26.84 16.48V12.41C26.84 10.78 25.82 9.76001 24.19 9.76001H17.4C17.28 9.76001 17.17 9.77003 17.06 9.78003C16.85 9.79003 16.65 9.72002 16.49 9.58002C16.33 9.44002 16.25 9.24003 16.25 9.03003V6.26001C16.25 3.32001 18.31 1.26001 21.25 1.26001H29.75C32.69 1.26001 34.75 3.32001 34.75 6.26001V11.36C34.75 12.81 34.26 14.09 33.36 14.97C32.64 15.7 31.64 16.17 30.5 16.31V17.42C30.5 18.02 30.17 18.56 29.65 18.84C29.41 18.95 29.15 19.01 28.9 19.01ZM28.3 17.13L28.95 17.5C29.01 17.47 29.01 17.42 29.01 17.41V15.6C29.01 15.19 29.35 14.85 29.76 14.85C30.81 14.85 31.7 14.52 32.31 13.9C32.94 13.28 33.26 12.4 33.26 11.35V6.25C33.26 4.12 31.89 2.75 29.76 2.75H21.26C19.13 2.75 17.76 4.12 17.76 6.25V8.25H24.2C26.64 8.25 28.35 9.96002 28.35 12.4V16.47C28.34 16.7 28.33 16.92 28.3 17.13Z" fill="#292D32"/>
<path d="M18.07 22.75C17.85 22.75 17.62 22.7 17.41 22.59C16.94 22.34 16.65 21.86 16.65 21.32V20.56C15.77 20.42 14.99 20.05 14.41 19.47C13.65 18.71 13.25 17.67 13.25 16.47V12.4C13.25 10.14 14.73 8.48002 16.93 8.27002C17.09 8.26002 17.24 8.25 17.4 8.25H24.19C26.63 8.25 28.34 9.96002 28.34 12.4V16.47C28.34 16.91 28.29 17.32 28.18 17.69C27.73 19.49 26.2 20.62 24.19 20.62H21.7L18.87 22.5C18.63 22.67 18.35 22.75 18.07 22.75ZM17.4 9.75C17.28 9.75 17.17 9.76002 17.06 9.77002C15.62 9.90002 14.75 10.89 14.75 12.4V16.47C14.75 17.27 15 17.94 15.47 18.41C15.93 18.87 16.6 19.12 17.4 19.12C17.81 19.12 18.15 19.46 18.15 19.87V21.18L21.05 19.25C21.17 19.17 21.32 19.12 21.47 19.12H24.19C25.51 19.12 26.44 18.46 26.73 17.3C26.8 17.05 26.84 16.77 26.84 16.47V12.4C26.84 10.77 25.82 9.75 24.19 9.75H17.4Z" fill="#292D32"/>
</svg>
