<svg width="83" height="46" viewBox="0 0 83 46" fill="none" xmlns="http://www.w3.org/2000/svg">
<g filter="url(#filter0_d_22_134)">
<path d="M59.9512 17.0664C59.371 15.6521 58.4735 14.5596 57.2767 13.8162C56.1254 13.1045 54.702 12.7464 53.0384 12.7464C51.3747 12.7464 49.9876 13.1181 48.7093 13.8479C48.6051 13.9069 48.5053 13.9658 48.4056 14.0292C47.7664 13.4354 46.6967 12.8099 45.0376 12.8099C43.1881 12.8099 42.0684 13.5669 41.461 14.206C41.4111 14.2559 41.3703 14.3148 41.325 14.3647C41.2661 14.2967 41.2072 14.2287 41.1482 14.1698C40.5227 13.5487 39.3939 12.8053 37.5354 12.8053C35.6769 12.8053 34.5345 13.5623 33.9226 14.2015C33.0613 15.1036 32.6216 16.3094 32.6216 17.7826V24.0472C32.6216 24.6637 32.4403 24.8677 32.3814 24.9312C32.2771 25.049 32.191 25.1034 31.987 25.108C31.9779 25.0309 31.9688 24.9266 31.9688 24.7997V17.7826C31.9688 15.9241 31.2254 14.7953 30.6044 14.1698C29.9834 13.5487 28.8547 12.8053 27.0233 12.8053C26.6516 12.8053 26.3116 12.8416 25.9989 12.896C26.425 12.352 26.7241 11.7129 26.8692 10.9967C27.0324 10.1898 26.9689 9.39196 26.6788 8.62588C26.3706 7.81447 25.7949 7.12545 25.0107 6.62681C24.2083 6.12365 23.2201 5.91966 22.0687 6.02845L21.0443 6.16444C18.1975 6.45456 15.9763 7.38383 14.4396 8.92052C13.3426 10.0175 12.6174 11.459 12.2728 13.2224C11.4569 13.3674 10.7679 13.7074 10.2103 14.2332C9.65729 14.7545 9 15.7155 9 17.3338C9 18.9521 9.64822 19.8361 10.1877 20.3619C10.5639 20.7291 11.1577 21.1461 12.0326 21.3546V28.6256C12.0326 30.4841 12.776 31.6174 13.397 32.2384C14.0181 32.8594 15.1513 33.6029 17.0099 33.6029C20.0379 33.6029 21.9237 31.6945 21.9237 28.6256V21.4906C21.9826 21.4906 22.0325 21.4815 22.0868 21.477V24.6728C22.0868 26.4905 22.3679 28.0635 22.9209 29.3463C23.542 30.7924 24.5075 31.8939 25.7858 32.6237C26.9871 33.3127 28.4784 33.6618 30.2282 33.6618C31.783 33.6618 33.1701 33.2674 34.3532 32.4923C35.0105 33.0453 36.0576 33.5983 37.6351 33.5983C39.2126 33.5983 40.5136 33.0498 41.3613 32.0798C41.3975 32.1206 41.4293 32.1614 41.4655 32.2022C42.354 33.1269 43.5779 33.5983 45.1101 33.5983C48.1608 33.5983 50.0556 31.6899 50.0556 28.6211V22.3202C50.0556 21.7263 50.2279 21.545 50.2823 21.4815C50.3412 21.4226 50.4409 21.3093 50.7854 21.2912C50.8126 21.4271 50.8353 21.6402 50.8353 21.9575V28.6165C50.8353 30.1034 51.2841 31.3137 52.168 32.2112C52.7845 32.8413 53.9132 33.5938 55.7808 33.5938C57.6484 33.5938 58.7726 32.8413 59.3937 32.2157C60.2776 31.3137 60.7264 30.1034 60.7264 28.6165V21.7309C60.7264 19.8587 60.4725 18.3311 59.9558 17.0618L59.9512 17.0664Z" fill="white"/>
</g>
<path d="M21.7696 15.1761H19.8748V14.6865C19.8748 13.9023 20.0969 13.3176 20.5457 12.9232C20.9899 12.5333 21.7787 12.3022 22.9119 12.2387L23.338 12.207C23.7732 12.1616 24.1177 11.9894 24.367 11.6857C24.6163 11.382 24.7841 11.0148 24.8747 10.5932C24.9609 10.1671 24.9291 9.7546 24.775 9.35116C24.6209 8.94772 24.3398 8.61681 23.9273 8.3539C23.5148 8.09098 22.9573 7.99579 22.2637 8.05925L21.2846 8.19071C18.8911 8.43096 17.0915 9.15171 15.8812 10.362C14.7797 11.4636 14.1859 13.0728 14.0907 15.1761H13.2566C12.5404 15.1761 11.9873 15.3574 11.6066 15.7155C11.2258 16.0736 11.0354 16.6131 11.0354 17.3293C11.0354 18.0047 11.2258 18.526 11.6066 18.8977C11.9873 19.2694 12.5358 19.4507 13.2566 19.4507H14.0725V28.6211C14.0725 29.5549 14.3264 30.2801 14.8386 30.7924C15.3508 31.3046 16.0716 31.5585 17.0099 31.5585C18.9229 31.5585 19.8839 30.5793 19.8839 28.6211V19.4507H21.7787C22.4949 19.4507 23.0389 19.2649 23.4106 18.8977C23.7823 18.526 23.9636 18.0047 23.9636 17.3293C23.9636 16.6131 23.7777 16.0736 23.4106 15.7155C23.0389 15.3574 22.4949 15.1761 21.7787 15.1761H21.7696Z" fill="#FFA81D"/>
<path d="M37.5309 14.8497C36.5971 14.8497 35.8809 15.1036 35.3913 15.6158C34.9017 16.128 34.657 16.8533 34.657 17.7871V24.0518C34.657 24.9856 34.4031 25.738 33.8909 26.3047C33.3786 26.8713 32.7304 27.1524 31.9507 27.1524C31.2527 27.1524 30.745 26.9574 30.4186 26.5631C30.0922 26.1732 29.929 25.5839 29.929 24.7997V17.7826C29.929 16.8488 29.6752 16.1235 29.1629 15.6113C28.6507 15.099 27.939 14.8452 27.0233 14.8452C26.1077 14.8452 25.3688 15.099 24.8702 15.6113C24.3715 16.1235 24.1177 16.8488 24.1177 17.7826V24.6683C24.1177 26.214 24.3398 27.5014 24.7886 28.5349C25.2328 29.5685 25.9037 30.3391 26.7967 30.8513C27.6897 31.3635 28.832 31.6174 30.2237 31.6174C31.3977 31.6174 32.4131 31.3273 33.2744 30.7516C33.8773 30.3481 34.3804 29.8132 34.7975 29.165C34.8791 29.8359 35.1148 30.3799 35.5092 30.7833C36.0078 31.2955 36.715 31.5494 37.6306 31.5494C39.5254 31.5494 40.4683 30.5703 40.4683 28.612V17.7871C40.4683 16.8533 40.2145 16.128 39.7022 15.6158C39.19 15.1036 38.4692 14.8497 37.5309 14.8497Z" fill="#FFA81D"/>
<path d="M58.061 17.837C57.6485 16.8261 57.0275 16.0646 56.2024 15.5523C55.3774 15.0401 54.3212 14.7863 53.0384 14.7863C51.7555 14.7863 50.6948 15.0628 49.7247 15.6203C48.9451 16.0691 48.315 16.6765 47.8254 17.429C47.7665 16.672 47.5398 16.06 47.1183 15.6203C46.6287 15.1081 45.9397 14.8543 45.0467 14.8543C44.1537 14.8543 43.4329 15.1081 42.9433 15.6203C42.4538 16.1326 42.209 16.8578 42.209 17.7917V28.6256C42.209 29.5594 42.4538 30.2847 42.9433 30.7969C43.4329 31.3091 44.1537 31.563 45.1147 31.563C47.0503 31.563 48.0203 30.5839 48.0203 28.6256V22.3247C48.0203 21.3909 48.2832 20.6429 48.8045 20.0899C49.3258 19.5369 50.0239 19.2558 50.8943 19.2558C51.547 19.2558 52.0411 19.4689 52.3811 19.8904C52.7211 20.312 52.8888 21.0056 52.8888 21.962V28.6211C52.8888 29.5549 53.1381 30.2801 53.6413 30.7924C54.1399 31.3046 54.8607 31.5585 55.7945 31.5585C56.7283 31.5585 57.449 31.3001 57.9477 30.7924C58.4463 30.2801 58.7001 29.5594 58.7001 28.6211V21.7354C58.7001 20.1488 58.4916 18.8478 58.0791 17.837H58.061Z" fill="#FFA81D"/>
<path d="M72 33C78.0751 33 83 28.0751 83 22C83 15.9249 78.0751 11 72 11C65.9249 11 61 15.9249 61 22C61 28.0751 65.9249 33 72 33Z" fill="#FFA81D"/>
<path d="M80.948 18.9762C80.9 18.6405 80.7559 18.3694 80.5399 18.1499C80.3118 17.9434 80.0118 17.8272 79.6517 17.8272C79.2196 17.8272 78.8835 17.9305 78.6434 18.137C78.4034 18.3436 78.1753 18.7051 77.9833 19.2344L76.3509 23.5462L74.8025 19.2473C74.6105 18.6922 74.3944 18.3178 74.1544 18.1241C73.9143 17.9305 73.6023 17.8272 73.2062 17.8272C72.7381 17.8272 72.378 17.9305 72.1139 18.1499C71.9459 18.279 71.8378 18.434 71.7538 18.6147C71.7058 18.5114 71.6458 18.4211 71.5738 18.3565C71.3577 18.137 71.0457 18.0338 70.6496 18.0338H69.1372V16.7815C69.1372 16.2135 68.9932 15.7746 68.7171 15.4647C68.429 15.1549 68.0329 15 67.5048 15C66.9767 15 66.5686 15.1549 66.2925 15.4647C66.0045 15.7746 65.8724 16.2135 65.8724 16.7815V18.0338H65.2603C64.8642 18.0338 64.5641 18.137 64.3361 18.3565C64.108 18.576 64 18.8987 64 19.3376C64 19.7507 64.108 20.0606 64.3361 20.2929C64.5641 20.5124 64.8762 20.6286 65.2603 20.6286H65.8724V23.856C65.8724 24.7855 66.0165 25.5472 66.3165 26.1539C66.6166 26.7607 67.0607 27.2254 67.6609 27.5353C68.261 27.8451 69.0172 28 69.9174 28C70.0974 28 70.3375 27.9742 70.6256 27.9355C70.9136 27.8838 71.1537 27.8322 71.3337 27.7418C71.6098 27.6256 71.8138 27.432 71.9339 27.1609C72.0539 26.8898 72.1139 26.5541 72.1139 26.1668C72.1139 25.6763 72.0539 25.3664 71.9219 25.2244C71.7898 25.0824 71.6338 25.0179 71.4298 25.0179C71.2977 25.0308 71.1417 25.0566 70.9856 25.0953C70.8296 25.1341 70.6496 25.1599 70.4695 25.1599C70.0014 25.1599 69.6653 25.0437 69.4613 24.8113C69.2572 24.5789 69.1492 24.2175 69.1492 23.7398V20.6286H70.6616C71.0577 20.6286 71.3577 20.5124 71.5858 20.2929C71.6698 20.2026 71.7298 20.0993 71.7898 19.9831C71.8018 20.0218 71.8138 20.0606 71.8258 20.0864L74.4425 26.5541C74.6225 27.0189 74.8746 27.3674 75.1866 27.5998C75.4987 27.8322 75.8588 27.9613 76.2789 27.9613C76.699 27.9613 77.0711 27.8451 77.3831 27.6127C77.6952 27.3803 77.9353 27.0318 78.1153 26.5799L80.804 20.0864C80.972 19.6733 81.032 19.2989 80.984 18.9633L80.948 18.9762Z" fill="white"/>
<defs>
<filter id="filter0_d_22_134" x="-1" y="-2" width="71.7263" height="47.6618" filterUnits="userSpaceOnUse" color-interpolation-filters="sRGB">
<feFlood flood-opacity="0" result="BackgroundImageFix"/>
<feColorMatrix in="SourceAlpha" type="matrix" values="0 0 0 0 0 0 0 0 0 0 0 0 0 0 0 0 0 0 127 0" result="hardAlpha"/>
<feOffset dy="2"/>
<feGaussianBlur stdDeviation="5"/>
<feComposite in2="hardAlpha" operator="out"/>
<feColorMatrix type="matrix" values="0 0 0 0 0 0 0 0 0 0 0 0 0 0 0 0 0 0 0.22 0"/>
<feBlend mode="normal" in2="BackgroundImageFix" result="effect1_dropShadow_22_134"/>
<feBlend mode="normal" in="SourceGraphic" in2="effect1_dropShadow_22_134" result="shape"/>
</filter>
</defs>
</svg>
