<svg width="43" height="46" viewBox="0 0 43 46" fill="none" xmlns="http://www.w3.org/2000/svg">
<path d="M6.13723 43C6.07323 43 6.02923 42.972 6.00523 42.916L4.32523 39.328C4.31723 39.304 4.30123 39.292 4.27723 39.292H2.54923C2.51723 39.292 2.50123 39.308 2.50123 39.34V42.88C2.50123 42.96 2.46123 43 2.38123 43H1.46923C1.38923 43 1.34923 42.96 1.34923 42.88V34.72C1.34923 34.64 1.38923 34.6 1.46923 34.6H4.69723C5.17723 34.6 5.59723 34.7 5.95723 34.9C6.32523 35.1 6.60923 35.38 6.80923 35.74C7.00923 36.1 7.10923 36.516 7.10923 36.988C7.10923 37.548 6.96123 38.024 6.66523 38.416C6.37723 38.8 5.97323 39.06 5.45323 39.196C5.42123 39.212 5.41323 39.232 5.42923 39.256L7.16923 42.856C7.17723 42.872 7.18123 42.892 7.18123 42.916C7.18123 42.972 7.14923 43 7.08523 43H6.13723ZM2.54923 35.596C2.51723 35.596 2.50123 35.612 2.50123 35.644V38.332C2.50123 38.364 2.51723 38.38 2.54923 38.38H4.55323C4.97723 38.38 5.31723 38.256 5.57323 38.008C5.82923 37.752 5.95723 37.416 5.95723 37C5.95723 36.576 5.82923 36.236 5.57323 35.98C5.31723 35.724 4.97723 35.596 4.55323 35.596H2.54923ZM10.7966 36.796C11.2846 36.796 11.7086 36.884 12.0686 37.06C12.4366 37.228 12.7166 37.468 12.9086 37.78C13.1086 38.084 13.2086 38.432 13.2086 38.824V42.88C13.2086 42.96 13.1686 43 13.0886 43H12.1766C12.0966 43 12.0566 42.96 12.0566 42.88V42.448C12.0566 42.408 12.0366 42.4 11.9966 42.424C11.7886 42.64 11.5326 42.808 11.2286 42.928C10.9326 43.04 10.6006 43.096 10.2326 43.096C9.64061 43.096 9.14861 42.948 8.75661 42.652C8.37261 42.348 8.18061 41.892 8.18061 41.284C8.18061 40.66 8.39661 40.172 8.82861 39.82C9.26861 39.46 9.88061 39.28 10.6646 39.28H12.0086C12.0406 39.28 12.0566 39.264 12.0566 39.232V38.908C12.0566 38.556 11.9526 38.284 11.7446 38.092C11.5446 37.892 11.2366 37.792 10.8206 37.792C10.4846 37.792 10.2086 37.86 9.99261 37.996C9.78461 38.124 9.65661 38.3 9.60861 38.524C9.58461 38.604 9.53661 38.64 9.46461 38.632L8.49261 38.5C8.41261 38.484 8.37661 38.452 8.38461 38.404C8.44861 37.932 8.70061 37.548 9.14061 37.252C9.58061 36.948 10.1326 36.796 10.7966 36.796ZM10.4846 42.124C10.9086 42.124 11.2766 42.012 11.5886 41.788C11.9006 41.564 12.0566 41.28 12.0566 40.936V40.228C12.0566 40.196 12.0406 40.18 12.0086 40.18H10.8806C10.4086 40.18 10.0326 40.272 9.75261 40.456C9.47261 40.64 9.33261 40.896 9.33261 41.224C9.33261 41.52 9.43661 41.744 9.64461 41.896C9.86061 42.048 10.1406 42.124 10.4846 42.124ZM17.4878 36.808C18.1438 36.808 18.6638 37 19.0478 37.384C19.4318 37.76 19.6238 38.272 19.6238 38.92V42.88C19.6238 42.96 19.5838 43 19.5038 43H18.5918C18.5118 43 18.4718 42.96 18.4718 42.88V39.148C18.4718 38.748 18.3558 38.424 18.1238 38.176C17.8918 37.928 17.5838 37.804 17.1998 37.804C16.8238 37.804 16.5158 37.928 16.2758 38.176C16.0358 38.424 15.9158 38.744 15.9158 39.136V42.88C15.9158 42.96 15.8758 43 15.7958 43H14.8838C14.8038 43 14.7638 42.96 14.7638 42.88V37.012C14.7638 36.932 14.8038 36.892 14.8838 36.892H15.7958C15.8758 36.892 15.9158 36.932 15.9158 37.012V37.444C15.9158 37.46 15.9198 37.472 15.9278 37.48C15.9438 37.488 15.9558 37.484 15.9638 37.468C16.3078 37.028 16.8158 36.808 17.4878 36.808ZM21.376 43C21.296 43 21.256 42.96 21.256 42.88V34.72C21.256 34.64 21.296 34.6 21.376 34.6H22.288C22.368 34.6 22.408 34.64 22.408 34.72V39.34C22.408 39.356 22.416 39.368 22.432 39.376C22.448 39.384 22.46 39.38 22.468 39.364L24.688 36.952C24.72 36.912 24.768 36.892 24.832 36.892H25.9C25.948 36.892 25.976 36.908 25.984 36.94C26 36.964 25.992 36.996 25.96 37.036L24.412 38.824C24.396 38.856 24.392 38.88 24.4 38.896L26.236 42.856L26.248 42.904C26.248 42.968 26.212 43 26.14 43H25.18C25.116 43 25.072 42.968 25.048 42.904L23.62 39.64C23.604 39.6 23.584 39.596 23.56 39.628L22.432 40.876C22.416 40.908 22.408 40.928 22.408 40.936V42.88C22.408 42.96 22.368 43 22.288 43H21.376ZM28.0926 35.932C27.8686 35.932 27.6846 35.86 27.5406 35.716C27.3966 35.572 27.3246 35.388 27.3246 35.164C27.3246 34.94 27.3966 34.756 27.5406 34.612C27.6846 34.468 27.8686 34.396 28.0926 34.396C28.3166 34.396 28.5006 34.468 28.6446 34.612C28.7886 34.756 28.8606 34.94 28.8606 35.164C28.8606 35.388 28.7886 35.572 28.6446 35.716C28.5006 35.86 28.3166 35.932 28.0926 35.932ZM27.6126 42.988C27.5326 42.988 27.4926 42.948 27.4926 42.868V37.012C27.4926 36.932 27.5326 36.892 27.6126 36.892H28.5246C28.6046 36.892 28.6446 36.932 28.6446 37.012V42.868C28.6446 42.948 28.6046 42.988 28.5246 42.988H27.6126ZM33.1792 36.808C33.8352 36.808 34.3552 37 34.7392 37.384C35.1232 37.76 35.3152 38.272 35.3152 38.92V42.88C35.3152 42.96 35.2752 43 35.1952 43H34.2832C34.2032 43 34.1632 42.96 34.1632 42.88V39.148C34.1632 38.748 34.0472 38.424 33.8152 38.176C33.5832 37.928 33.2752 37.804 32.8912 37.804C32.5152 37.804 32.2072 37.928 31.9672 38.176C31.7272 38.424 31.6072 38.744 31.6072 39.136V42.88C31.6072 42.96 31.5672 43 31.4872 43H30.5752C30.4952 43 30.4552 42.96 30.4552 42.88V37.012C30.4552 36.932 30.4952 36.892 30.5752 36.892H31.4872C31.5672 36.892 31.6072 36.932 31.6072 37.012V37.444C31.6072 37.46 31.6112 37.472 31.6192 37.48C31.6352 37.488 31.6472 37.484 31.6552 37.468C31.9992 37.028 32.5072 36.808 33.1792 36.808ZM40.7151 37.012C40.7151 36.932 40.7551 36.892 40.8351 36.892H41.7471C41.8271 36.892 41.8671 36.932 41.8671 37.012V42.688C41.8671 43.656 41.5911 44.348 41.0391 44.764C40.4951 45.18 39.7631 45.388 38.8431 45.388C38.7151 45.388 38.5151 45.38 38.2431 45.364C38.1631 45.356 38.1231 45.312 38.1231 45.232L38.1591 44.404C38.1591 44.372 38.1711 44.344 38.1951 44.32C38.2191 44.296 38.2511 44.288 38.2911 44.296C38.4031 44.304 38.5671 44.308 38.7831 44.308C39.4631 44.308 39.9551 44.18 40.2591 43.924C40.5631 43.676 40.7151 43.252 40.7151 42.652V42.436C40.7151 42.42 40.7071 42.408 40.6911 42.4C40.6831 42.392 40.6711 42.396 40.6551 42.412C40.3191 42.804 39.8271 43 39.1791 43C38.6591 43 38.1871 42.864 37.7631 42.592C37.3471 42.32 37.0591 41.92 36.8991 41.392C36.7951 41.04 36.7431 40.552 36.7431 39.928C36.7431 39.264 36.8031 38.752 36.9231 38.392C37.0751 37.912 37.3431 37.528 37.7271 37.24C38.1191 36.944 38.5791 36.796 39.1071 36.796C39.7631 36.796 40.2791 36.996 40.6551 37.396C40.6711 37.412 40.6831 37.42 40.6911 37.42C40.7071 37.412 40.7151 37.4 40.7151 37.384V37.012ZM40.6431 41.044C40.6671 40.916 40.6831 40.78 40.6911 40.636C40.7071 40.492 40.7151 40.252 40.7151 39.916C40.7151 39.58 40.7071 39.344 40.6911 39.208C40.6831 39.064 40.6631 38.928 40.6311 38.8C40.5671 38.504 40.4231 38.264 40.1991 38.08C39.9751 37.888 39.6951 37.792 39.3591 37.792C39.0231 37.792 38.7431 37.888 38.5191 38.08C38.2951 38.264 38.1351 38.504 38.0391 38.8C37.9511 39.04 37.9071 39.412 37.9071 39.916C37.9071 40.468 37.9471 40.844 38.0271 41.044C38.1071 41.34 38.2631 41.584 38.4951 41.776C38.7351 41.96 39.0231 42.052 39.3591 42.052C39.7111 42.052 39.9951 41.96 40.2111 41.776C40.4351 41.584 40.5791 41.34 40.6431 41.044Z" fill="#252525"/>
<path d="M18.67 22.75H12C11.59 22.75 11.25 22.41 11.25 22V16C11.25 14.48 12.48 13.25 14 13.25H18.67C19.08 13.25 19.42 13.59 19.42 14V22C19.42 22.41 19.08 22.75 18.67 22.75ZM12.75 21.25H17.92V14.75H14C13.31 14.75 12.75 15.31 12.75 16V21.25Z" fill="#292D32"/>
<path d="M25.3302 22.75H18.6602C18.2502 22.75 17.9102 22.41 17.9102 22V12C17.9102 10.48 19.1402 9.25 20.6602 9.25H23.3302C24.8502 9.25 26.0802 10.48 26.0802 12V22C26.0802 22.41 25.7502 22.75 25.3302 22.75ZM19.4202 21.25H24.5902V12C24.5902 11.31 24.0302 10.75 23.3402 10.75H20.6702C19.9802 10.75 19.4202 11.31 19.4202 12V21.25Z" fill="#292D32"/>
<path d="M32.0001 22.75H25.3301C24.9201 22.75 24.5801 22.41 24.5801 22V17C24.5801 16.59 24.9201 16.25 25.3301 16.25H30.0001C31.5201 16.25 32.7501 17.48 32.7501 19V22C32.7501 22.41 32.4101 22.75 32.0001 22.75ZM26.0801 21.25H31.2501V19C31.2501 18.31 30.6901 17.75 30.0001 17.75H26.0801V21.25Z" fill="#292D32"/>
<path d="M23.6999 8.34999C23.4599 8.34999 23.1599 8.27997 22.8199 8.07997L21.9999 7.58998L21.1899 8.06999C20.3699 8.55999 19.8299 8.26998 19.6299 8.12998C19.4299 7.98998 18.9999 7.54998 19.2099 6.62998L19.3999 5.79997L18.7199 5.11997C18.2999 4.69997 18.1499 4.19997 18.2999 3.73997C18.4499 3.27997 18.8599 2.95996 19.4399 2.85996L20.3099 2.70997L20.7999 1.72999C21.3399 0.65999 22.6499 0.65999 23.1799 1.72999L23.6699 2.70997L24.5399 2.85996C25.1199 2.95996 25.5399 3.27997 25.6799 3.73997C25.8299 4.19997 25.6699 4.69997 25.2599 5.11997L24.5799 5.79997L24.7699 6.62998C24.9799 7.55998 24.5499 7.98999 24.3499 8.13999C24.2599 8.21999 24.0299 8.34999 23.6999 8.34999ZM21.9999 6.07997C22.2399 6.07997 22.4799 6.13999 22.6799 6.25999L23.2399 6.58998L23.1199 6.04997C23.0199 5.62997 23.1699 5.11998 23.4799 4.80998L23.9899 4.29997L23.3599 4.18998C22.9599 4.11998 22.5699 3.82998 22.3899 3.46998L21.9999 2.71998L21.6199 3.46998C21.4399 3.82998 21.0499 4.11998 20.6499 4.18998L20.0199 4.28999L20.5299 4.79997C20.8399 5.10997 20.9799 5.61999 20.8899 6.03999L20.7699 6.57997L21.3299 6.24998C21.5199 6.12998 21.7599 6.07997 21.9999 6.07997Z" fill="#292D32"/>
</svg>
