<svg width="18" height="18" viewBox="0 0 18 18" fill="none" xmlns="http://www.w3.org/2000/svg">
<path d="M9 17.0625C5.1 17.0625 1.935 13.89 1.935 9.9975C1.935 6.105 5.1 2.925 9 2.925C9.8025 2.925 10.5825 3.0375 11.3325 3.27C11.6325 3.36 11.7975 3.675 11.7075 3.975C11.6175 4.275 11.3025 4.44 11.0025 4.35C10.365 4.155 9.69 4.05 9 4.05C5.7225 4.05 3.06 6.7125 3.06 9.99C3.06 13.2675 5.7225 15.93 9 15.93C12.2775 15.93 14.94 13.2675 14.94 9.99C14.94 8.805 14.595 7.665 13.9425 6.69C13.77 6.435 13.8375 6.0825 14.1 5.91C14.355 5.7375 14.7075 5.805 14.88 6.0675C15.66 7.23 16.0725 8.5875 16.0725 9.9975C16.065 13.89 12.9 17.0625 9 17.0625Z" fill="#717171"/>
<path d="M12.0975 4.5525C11.94 4.5525 11.7825 4.485 11.67 4.3575L9.5025 1.8675C9.3 1.635 9.3225 1.275 9.555 1.0725C9.7875 0.87 10.1475 0.8925 10.35 1.125L12.5175 3.615C12.72 3.8475 12.6975 4.2075 12.465 4.41C12.3675 4.5075 12.2325 4.5525 12.0975 4.5525Z" fill="#717171"/>
<path d="M9.57001 6.3975C9.39751 6.3975 9.22501 6.315 9.11251 6.165C8.93251 5.9175 8.98501 5.565 9.23251 5.3775L11.76 3.5325C12.0075 3.345 12.36 3.405 12.5475 3.6525C12.735 3.9 12.675 4.2525 12.4275 4.44L9.90001 6.2925C9.80251 6.3675 9.69001 6.3975 9.57001 6.3975Z" fill="#717171"/>
</svg>
