<svg width="31" height="42" viewBox="0 0 31 42" fill="none" xmlns="http://www.w3.org/2000/svg">
<path d="M3.80061 40.096C3.18461 40.096 2.64861 40 2.19261 39.808C1.74461 39.616 1.39661 39.344 1.14861 38.992C0.908609 38.64 0.788609 38.228 0.788609 37.756V37.408C0.788609 37.328 0.828609 37.288 0.908609 37.288H1.78461C1.86461 37.288 1.90461 37.328 1.90461 37.408V37.696C1.90461 38.104 2.08061 38.44 2.43261 38.704C2.78461 38.968 3.26861 39.1 3.88461 39.1C4.43661 39.1 4.85261 38.984 5.13261 38.752C5.41261 38.52 5.55261 38.216 5.55261 37.84C5.55261 37.592 5.48061 37.38 5.33661 37.204C5.19261 37.028 4.98061 36.868 4.70061 36.724C4.42861 36.572 4.02861 36.392 3.50061 36.184C2.91661 35.96 2.45261 35.756 2.10861 35.572C1.77261 35.388 1.49261 35.148 1.26861 34.852C1.04461 34.548 0.932609 34.168 0.932609 33.712C0.932609 33.024 1.17661 32.484 1.66461 32.092C2.16061 31.7 2.82861 31.504 3.66861 31.504C4.26061 31.504 4.78061 31.604 5.22861 31.804C5.67661 32.004 6.02061 32.284 6.26061 32.644C6.50861 33.004 6.63261 33.42 6.63261 33.892V34.132C6.63261 34.212 6.59261 34.252 6.51261 34.252H5.61261C5.53261 34.252 5.49261 34.212 5.49261 34.132V33.952C5.49261 33.536 5.32461 33.192 4.98861 32.92C4.66061 32.64 4.20461 32.5 3.62061 32.5C3.12461 32.5 2.74061 32.604 2.46861 32.812C2.19661 33.012 2.06061 33.304 2.06061 33.688C2.06061 33.952 2.12861 34.168 2.26461 34.336C2.40061 34.504 2.60061 34.656 2.86461 34.792C3.13661 34.92 3.54861 35.088 4.10061 35.296C4.66861 35.52 5.12861 35.728 5.48061 35.92C5.83261 36.104 6.12461 36.352 6.35661 36.664C6.58861 36.968 6.70461 37.348 6.70461 37.804C6.70461 38.508 6.44461 39.068 5.92461 39.484C5.41261 39.892 4.70461 40.096 3.80061 40.096ZM10.8433 33.808C11.4993 33.808 12.0193 34 12.4033 34.384C12.7873 34.76 12.9793 35.272 12.9793 35.92V39.88C12.9793 39.96 12.9393 40 12.8593 40H11.9473C11.8673 40 11.8273 39.96 11.8273 39.88V36.148C11.8273 35.748 11.7113 35.424 11.4793 35.176C11.2473 34.928 10.9393 34.804 10.5553 34.804C10.1793 34.804 9.8713 34.928 9.6313 35.176C9.3913 35.424 9.2713 35.744 9.2713 36.136V39.88C9.2713 39.96 9.2313 40 9.1513 40H8.2393C8.1593 40 8.1193 39.96 8.1193 39.88V31.72C8.1193 31.64 8.1593 31.6 8.2393 31.6H9.1513C9.2313 31.6 9.2713 31.64 9.2713 31.72V34.444C9.2713 34.46 9.2753 34.472 9.2833 34.48C9.2993 34.488 9.3113 34.484 9.3193 34.468C9.6633 34.028 10.1713 33.808 10.8433 33.808ZM16.8552 33.796C17.3432 33.796 17.7672 33.884 18.1272 34.06C18.4952 34.228 18.7752 34.468 18.9672 34.78C19.1672 35.084 19.2672 35.432 19.2672 35.824V39.88C19.2672 39.96 19.2272 40 19.1472 40H18.2352C18.1552 40 18.1152 39.96 18.1152 39.88V39.448C18.1152 39.408 18.0952 39.4 18.0552 39.424C17.8472 39.64 17.5912 39.808 17.2872 39.928C16.9912 40.04 16.6592 40.096 16.2912 40.096C15.6992 40.096 15.2072 39.948 14.8152 39.652C14.4312 39.348 14.2392 38.892 14.2392 38.284C14.2392 37.66 14.4552 37.172 14.8872 36.82C15.3272 36.46 15.9392 36.28 16.7232 36.28H18.0672C18.0992 36.28 18.1152 36.264 18.1152 36.232V35.908C18.1152 35.556 18.0112 35.284 17.8032 35.092C17.6032 34.892 17.2952 34.792 16.8792 34.792C16.5432 34.792 16.2672 34.86 16.0512 34.996C15.8432 35.124 15.7152 35.3 15.6672 35.524C15.6432 35.604 15.5952 35.64 15.5232 35.632L14.5512 35.5C14.4712 35.484 14.4352 35.452 14.4432 35.404C14.5072 34.932 14.7592 34.548 15.1992 34.252C15.6392 33.948 16.1912 33.796 16.8552 33.796ZM16.5432 39.124C16.9672 39.124 17.3352 39.012 17.6472 38.788C17.9592 38.564 18.1152 38.28 18.1152 37.936V37.228C18.1152 37.196 18.0992 37.18 18.0672 37.18H16.9392C16.4672 37.18 16.0912 37.272 15.8112 37.456C15.5312 37.64 15.3912 37.896 15.3912 38.224C15.3912 38.52 15.4952 38.744 15.7032 38.896C15.9192 39.048 16.1992 39.124 16.5432 39.124ZM23.4984 33.832C23.7544 33.832 23.9864 33.884 24.1944 33.988C24.2504 34.012 24.2704 34.06 24.2544 34.132L24.0624 35.032C24.0544 35.104 24.0064 35.128 23.9184 35.104C23.7824 35.048 23.6224 35.02 23.4384 35.02L23.2704 35.032C22.8944 35.048 22.5824 35.18 22.3344 35.428C22.0944 35.668 21.9744 35.984 21.9744 36.376V39.88C21.9744 39.96 21.9344 40 21.8544 40H20.9424C20.8624 40 20.8224 39.96 20.8224 39.88V34.012C20.8224 33.932 20.8624 33.892 20.9424 33.892H21.8544C21.9344 33.892 21.9744 33.932 21.9744 34.012V34.648C21.9744 34.672 21.9784 34.688 21.9864 34.696C22.0024 34.696 22.0144 34.688 22.0224 34.672C22.3824 34.112 22.8744 33.832 23.4984 33.832ZM30.1258 36.184C30.1578 36.512 30.1698 36.88 30.1618 37.288C30.1618 37.368 30.1218 37.408 30.0418 37.408H26.2138C26.1818 37.408 26.1658 37.424 26.1658 37.456C26.1658 37.728 26.1898 37.936 26.2378 38.08C26.3258 38.4 26.5018 38.652 26.7658 38.836C27.0378 39.012 27.3778 39.1 27.7858 39.1C28.3778 39.1 28.8338 38.856 29.1538 38.368C29.1938 38.288 29.2458 38.276 29.3098 38.332L29.9938 38.788C30.0498 38.836 30.0618 38.888 30.0298 38.944C29.8058 39.304 29.4858 39.588 29.0698 39.796C28.6618 40.004 28.1978 40.108 27.6778 40.108C27.0938 40.108 26.6018 39.98 26.2018 39.724C25.8018 39.468 25.5018 39.104 25.3018 38.632C25.1098 38.16 25.0138 37.588 25.0138 36.916C25.0138 36.332 25.0578 35.888 25.1458 35.584C25.2898 35.032 25.5778 34.596 26.0098 34.276C26.4418 33.956 26.9658 33.796 27.5818 33.796C28.3898 33.796 28.9938 34 29.3938 34.408C29.7938 34.808 30.0378 35.4 30.1258 36.184ZM27.5818 34.792C27.2378 34.792 26.9538 34.88 26.7298 35.056C26.5058 35.224 26.3538 35.452 26.2738 35.74C26.2178 35.916 26.1818 36.14 26.1658 36.412C26.1658 36.444 26.1818 36.46 26.2138 36.46H28.9618C28.9938 36.46 29.0098 36.444 29.0098 36.412C28.9938 36.148 28.9698 35.952 28.9378 35.824C28.8578 35.512 28.6978 35.264 28.4578 35.08C28.2258 34.888 27.9338 34.792 27.5818 34.792Z" fill="#252525"/>
<path d="M19.59 13.01C16.35 13.01 13.71 10.37 13.71 7.13C13.71 3.89 16.35 1.25 19.59 1.25C22.83 1.25 25.47 3.89 25.47 7.13C25.47 10.37 22.83 13.01 19.59 13.01ZM19.59 2.75C17.18 2.75 15.21 4.71 15.21 7.13C15.21 9.55 17.17 11.51 19.59 11.51C22.01 11.51 23.97 9.55 23.97 7.13C23.97 4.71 22 2.75 19.59 2.75Z" fill="#292D32"/>
<path d="M10.3603 20.19C8.25026 20.19 6.53027 18.47 6.53027 16.36C6.53027 14.25 8.25026 12.53 10.3603 12.53C12.4703 12.53 14.1903 14.25 14.1903 16.36C14.1903 18.47 12.4703 20.19 10.3603 20.19ZM10.3603 14.03C9.08026 14.03 8.03027 15.07 8.03027 16.36C8.03027 17.64 9.07026 18.69 10.3603 18.69C11.6403 18.69 12.6903 17.65 12.6903 16.36C12.6903 15.08 11.6403 14.03 10.3603 14.03Z" fill="#292D32"/>
<path d="M20.6201 22.75C18.7901 22.75 17.3101 21.26 17.3101 19.44C17.3101 17.61 18.8001 16.13 20.6201 16.13C22.4401 16.13 23.9301 17.62 23.9301 19.44C23.9301 21.26 22.4401 22.75 20.6201 22.75ZM20.6201 17.62C19.6201 17.62 18.8101 18.43 18.8101 19.43C18.8101 20.43 19.6201 21.24 20.6201 21.24C21.6201 21.24 22.4301 20.43 22.4301 19.43C22.4301 18.44 21.6201 17.62 20.6201 17.62Z" fill="#292D32"/>
<line x1="15.6" y1="10.45" x2="12.6" y2="14.45" stroke="#292D32" stroke-width="1.5"/>
<line x1="18.7215" y1="18.6964" x2="13.7215" y2="16.6964" stroke="#292D32" stroke-width="1.5"/>
</svg>
